<svg xmlns="http://www.w3.org/2000/svg" width="12" height="7.287" viewBox="0 0 12 7.287">
  <path id="Path_581" data-name="Path 581" d="M193.782,198.21a1,1,0,0,1-.507-.091.808.808,0,0,1-.39-.267l-4.778-4.778a1.2,1.2,0,0,1-.358-.9,1.226,1.226,0,0,1,.358-.865l4.778-4.745a1.194,1.194,0,0,1,.9-.358,1.243,1.243,0,0,1,.9.358,1.263,1.263,0,0,1,.358.839,1.486,1.486,0,0,1-.358.9l-3.913,3.881,3.913,3.913a1.486,1.486,0,0,1,.358.9,1.263,1.263,0,0,1-.358.865.76.76,0,0,1-.449.267.91.91,0,0,1-.449.085Z" transform="translate(198.21 -187.75) rotate(90)" fill-rule="evenodd"/>
</svg>
