<svg xmlns="http://www.w3.org/2000/svg" width="32" height="32" viewBox="0 0 32 32">
  <g id="Button_-_Expand" data-name="Button - Expand" transform="translate(-202 -9)">
    <g id="Background" transform="translate(202 9)" fill="#fff" stroke="#707070" stroke-width="1" opacity="0">
      <rect width="32" height="32" stroke="none"/>
      <rect x="0.5" y="0.5" width="31" height="31" fill="none"/>
    </g>
    <path id="Icon_awesome-arrow-left" data-name="Icon awesome-arrow-left" d="M6.1,15.709l.712.712a.766.766,0,0,0,1.087,0l6.232-6.229a.766.766,0,0,0,0-1.087L7.9,2.873a.766.766,0,0,0-1.087,0L6.1,3.585a.77.77,0,0,0,.013,1.1l3.863,3.68H.766A.768.768,0,0,0,0,9.134V10.16a.768.768,0,0,0,.769.769H9.979L6.116,14.61A.765.765,0,0,0,6.1,15.709Z" transform="translate(213.003 15.353)"/>
    <rect id="Rectangle_692" data-name="Rectangle 692" width="3" height="12" rx="1" transform="translate(208 19)"/>
  </g>
</svg>
