<svg xmlns="http://www.w3.org/2000/svg" width="20" height="12" viewBox="0 0 20 12">
  <path id="Path_1120" data-name="Path 1120" d="M81,914.281l-3.7,1.97v-.716a3.309,3.309,0,0,0-3.5-3.134H65.5a3.313,3.313,0,0,0-3.5,3.134v5.731a3.309,3.309,0,0,0,3.5,3.134h8.3a3.313,3.313,0,0,0,3.5-3.134v-.716l3.7,1.97a.657.657,0,0,0,1-.537v-7.075A.659.659,0,0,0,81,914.281Zm-8.6,4.3-4,2.06a.339.339,0,0,1-.5-.269v-4.119a.385.385,0,0,1,.5-.269l4,2.06A.316.316,0,0,1,72.4,918.579Z" transform="translate(-62 -912.4)"/>
</svg>
